inDegrees=yes
name=ik_coleta1_trike_mov
DataType=double
version=3
OpenSimVersion=4.4-2022-07-23-0e9fedc
endheader
time	pelvis_tilt	pelvis_tx	pelvis_ty	hip_flexion_r	knee_angle_r	ankle_angle_r	hip_flexion_l	knee_angle_l	ankle_angle_l	lumbar_extension	gearToGround_coord_0	rightPedalToGear_coord_0	leftPedalToGear_coord_0
22.31950211524963	52.5	-0.7	0.0500000000000003	61.33785727280851	-55.21174775406022	-1.039076492892845e-12	80.38799999999991	-84.66000000000004	5.05043721578303e-13	2.071017320375504e-12	0	-114.0000000000003	-139.067795130823
22.32352781295776	52.5	-0.7	0.0500000000000003	61.55863699384027	-55.43233047127293	-1.039076492892845e-12	80.38799999999991	-84.66000000000004	5.05043721578303e-13	2.071017320375504e-12	0	-114.0000000000003	-139.067795130823
22.32849192619324	52.5	-0.7	0.0500000000000003	61.5585247217987	-56.51994642157381	-1.039076492892845e-12	80.38799999999991	-84.66000000000004	5.05043721578303e-13	2.071017320375504e-12	0	-114.0000000000003	-139.067795130823
22.33349800109863	52.5	-0.7	0.0500000000000003	61.55853950163189	-57.46443644653522	-1.039076492892845e-12	80.38799999999991	-84.66000000000004	5.05043721578303e-13	2.071017320375504e-12	0	-114.0000000000003	-139.067795130823
22.34449505805969	52.5	-0.7	0.0500000000000003	61.76653258905434	-57.67231246174713	-1.039076492892845e-12	80.38799999999991	-84.66000000000004	5.05043721578303e-13	2.071017320375504e-12	0	-114.0000000000003	-139.067795130823
22.35051798820496	52.5	-0.7	0.0500000000000003	61.76634850663835	-59.4536198347302	-1.039076492892845e-12	80.38799999999991	-84.66000000000004	5.05043721578303e-13	2.071017320375504e-12	0	-114.0000000000003	-139.067795130823
22.36250591278076	52.5	-0.7	0.0500000000000003	61.76631072221164	-61.59890582985918	-1.039076492892845e-12	80.38799999999991	-84.66000000000004	5.05043721578303e-13	2.071017320375504e-12	0	-114.0000000000003	-139.067795130823
22.36650013923645	52.5	-0.7	0.0500000000000003	62.01322196541032	-61.84555053209061	-1.039076492892845e-12	80.38799999999991	-84.66000000000004	5.05043721578303e-13	2.071017320375504e-12	0	-114.0000000000003	-139.067795130823
22.37150001525879	52.5	-0.7	0.0500000000000003	62.01312684848828	-62.76429869983524	-1.039076492892845e-12	80.38799999999991	-84.66000000000004	5.05043721578303e-13	2.071017320375504e-12	0	-114.0000000000003	-139.067795130823
22.37650299072266	52.5	-0.7	0.0500000000000003	62.29017869687268	-63.04123624310098	-1.039076492892845e-12	80.38799999999991	-84.66000000000004	5.05043721578303e-13	2.071017320375504e-12	0	-114.0000000000003	-139.067795130823
22.38251185417175	52.5	-0.7	0.0500000000000003	62.29008529702993	-63.94280574046604	-1.039076492892845e-12	80.38799999999991	-84.66000000000004	5.05043721578303e-13	2.071017320375504e-12	0	-114.0000000000003	-139.067795130823
22.38653683662415	52.5	-0.7	0.0500000000000003	62.59027042517591	-64.24287861062362	-1.039076492892845e-12	80.38799999999991	-84.66000000000004	5.05043721578303e-13	2.071017320375504e-12	0	-114.0000000000003	-139.067795130823
22.39149498939514	52.5	-0.7	0.0500000000000003	62.59017961357453	-65.11892897295974	-1.039076492892845e-12	80.38799999999991	-84.66000000000004	5.05043721578303e-13	2.071017320375504e-12	0	-114.0000000000003	-139.067795130823
22.39651083946228	52.5	-0.7	0.0500000000000003	62.81555364454728	-65.34419384260535	-1.039076492892845e-12	80.38799999999991	-84.66000000000004	5.05043721578303e-13	2.071017320375504e-12	0	-114.0000000000003	-139.067795130823
22.40049409866333	52.5	-0.7	0.0500000000000003	62.81546688422704	-66.18079575945866	-1.039076492892845e-12	80.38799999999991	-84.66000000000004	5.05043721578303e-13	2.071017320375504e-12	0	-114.0000000000003	-139.067795130823
22.41049289703369	52.5	-0.7	0.0500000000000003	62.81547053492315	-66.98228374330783	-1.039076492892845e-12	80.38799999999991	-84.66000000000004	5.05043721578303e-13	2.071017320375504e-12	0	-114.0000000000003	-139.067795130823
22.41649508476257	52.5	-0.7	0.0500000000000003	63.0220520863845	-67.1887653961866	-1.039076492892845e-12	80.38799999999991	-84.66000000000004	5.05043721578303e-13	2.071017320375504e-12	0	-114.0000000000003	-139.067795130823
22.42148995399475	52.5	-0.7	0.0500000000000003	63.02196683809995	-68.01016986922362	-1.039076492892845e-12	80.38799999999991	-84.66000000000004	5.05043721578303e-13	2.071017320375504e-12	0	-114.0000000000003	-139.067795130823
22.42649602890015	52.5	-0.7	0.0500000000000003	63.37180674667332	-68.3599072782846	-1.039076492892845e-12	80.38799999999991	-84.66000000000004	5.05043721578303e-13	2.071017320375504e-12	0	-114.0000000000003	-139.067795130823
22.43552684783936	52.5	-0.7	0.0500000000000003	64.60438818416975	-69.59248871962309	-1.039076492892845e-12	80.38799999999991	-84.66000000000004	5.05043721578303e-13	2.071017320375504e-12	0	-114.0000000000003	-139.067795130823
22.4434928894043	52.5	-0.7	0.0500000000000003	64.6043177935743	-70.2706142293396	-1.039076492892845e-12	80.38799999999991	-84.66000000000004	5.05043721578303e-13	2.071017320375504e-12	0	-114.0000000000003	-139.067795130823
22.44850516319275	52.5	-0.7	0.0500000000000003	65.73361761153352	-71.39982941098651	-1.039076492892845e-12	80.38799999999991	-84.66000000000004	5.05043721578303e-13	2.071017320375504e-12	0	-114.0000000000003	-139.067795130823
22.46449208259583	52.5	-0.7	0.0500000000000003	67.19666654477794	-72.86287834814279	-1.039076492892845e-12	80.38799999999991	-84.66000000000004	5.05043721578303e-13	2.071017320375504e-12	0	-114.0000000000003	-139.067795130823
22.47150492668152	52.5	-0.7	0.0500000000000003	67.82407510237233	-73.49028690164171	-1.039076492892845e-12	80.38799999999991	-84.66000000000004	5.05043721578303e-13	2.071017320375504e-12	0	-114.0000000000003	-139.067795130823
22.47549486160278	52.5	-0.7	0.0500000000000003	67.82407510237233	-73.49028690164171	-1.039076492892845e-12	80.38799999999991	-84.66000000000004	5.05043721578303e-13	2.071017320375504e-12	0	-114.0000000000003	-139.067795130823
22.48149704933167	52.5	-0.7	0.0500000000000003	67.94166181597508	-73.60787361292802	-1.039076492892845e-12	80.38799999999991	-84.66000000000004	5.05043721578303e-13	2.071017320375504e-12	0	-114.0000000000003	-139.067795130823
22.49051904678345	52.5	-0.7	0.0500000000000003	67.75077226083533	-73.41698405640827	-1.039076492892845e-12	80.38799999999991	-84.66000000000004	5.05043721578303e-13	2.071017320375504e-12	0	-114.0000000000003	-139.067795130823
22.5014979839325	52.5	-0.7	0.0500000000000003	67.75060522530181	-75.02640011999605	-1.039076492892845e-12	80.38799999999991	-84.66000000000004	5.05043721578303e-13	2.071017320375504e-12	0	-114.0000000000003	-139.067795130823
22.5094997882843	52.5	-0.7	0.0500000000000003	67.75071325883069	-75.59555539275696	-1.039076492892845e-12	80.38799999999991	-84.66000000000004	5.05043721578303e-13	2.071017320375504e-12	0	-114.0000000000003	-139.067795130823
22.51651406288147	52.5	-0.7	0.0500000000000003	67.46627264290167	-75.31104385817531	-1.039076492892845e-12	80.38799999999991	-84.66000000000004	5.05043721578303e-13	2.071017320375504e-12	0	-114.0000000000003	-139.067795130823
22.52254581451416	52.5	-0.7	0.0500000000000003	67.46621918538717	-75.82607596386734	-1.039076492892845e-12	80.38799999999991	-84.66000000000004	5.05043721578303e-13	2.071017320375504e-12	0	-114.0000000000003	-139.067795130823
22.52849292755127	52.5	-0.7	0.0500000000000003	67.46622392891838	-76.29558915853414	-1.039076492892845e-12	80.38799999999991	-84.66000000000004	5.05043721578303e-13	2.071017320375504e-12	0	-114.0000000000003	-139.067795130823
22.54252195358276	52.5	-0.7	0.0500000000000003	67.46622392891838	-76.29558915853414	-1.039076492892845e-12	80.38799999999991	-84.66000000000004	5.05043721578303e-13	2.071017320375504e-12	0	-114.0000000000003	-139.067795130823
22.54848575592041	52.5	-0.7	0.0500000000000003	67.46250972334425	-76.70713426815757	-1.039076492892845e-12	80.38799999999991	-84.66000000000004	5.05043721578303e-13	2.071017320375504e-12	0	-114.0000000000003	-139.067795130823
22.55653977394104	52.5	-0.7	0.0500000000000003	67.46154982759991	-77.04637129624064	-1.039076492892845e-12	80.38799999999991	-84.66000000000004	5.05043721578303e-13	2.071017320375504e-12	0	-114.0000000000003	-139.067795130823
